<?xml version="1.0" standalone="no"?>
<!DOCTYPE svg PUBLIC "-//W3C//DTD SVG 20010904//EN"
 "http://www.w3.org/TR/2001/REC-SVG-20010904/DTD/svg10.dtd">
<svg version="1.0" xmlns="http://www.w3.org/2000/svg"
 width="174.000000pt" height="290.000000pt" viewBox="0 0 174.000000 290.000000"
 preserveAspectRatio="xMidYMid meet">

<g transform="translate(0.000000,290.000000) scale(0.100000,-0.100000)"
fill="#000000" stroke="none">
<path d="M474 2755 c51 -178 69 -334 63 -540 -9 -279 -49 -429 -187 -710 -135
-273 -172 -403 -172 -610 0 -169 26 -292 89 -421 100 -205 304 -318 573 -317
169 1 288 34 414 113 133 84 202 186 250 370 57 218 56 391 -4 618 -95 363
-373 799 -835 1312 -141 156 -199 212 -191 185z"/>
</g>
</svg>
